<?xml version="1.0" encoding="UTF-8"?>
<svg id="Layer_2" xmlns="http://www.w3.org/2000/svg" xmlns:xlink="http://www.w3.org/1999/xlink" viewBox="0 0 240.98 154.68">
  <defs>
    <style>
      .cls-1 {
        fill: url(#Gradient-Green-New-2);
      }

      .cls-2 {
        fill: #efcc6b;
      }

      .cls-3 {
        fill: #96c93d;
      }

      .cls-4 {
        fill: #694d28;
      }

      .cls-5 {
        fill: #1e301b;
      }

      .cls-6 {
        fill: url(#Gradient-Orange-4);
      }

      .cls-7 {
        fill: url(#Gradient-Orange-3);
      }

      .cls-8 {
        fill: url(#Gradient-Orange-2);
      }

      .cls-9 {
        fill: url(#Gradient-Green-New);
      }

      .cls-10 {
        fill: url(#Gradient-Orange);
      }

      .cls-11 {
        fill: #ede669;
      }

      .cls-12 {
        fill: #736dad;
      }
    </style>
    <linearGradient id="Gradient-Green-New" x1="92.16" y1="147.49" x2="92.16" y2="35.32" gradientTransform="translate(-21.29 -29.26) rotate(4.54)" gradientUnits="userSpaceOnUse">
      <stop offset="0" stop-color="#7ec575"/>
      <stop offset=".27" stop-color="#43a456"/>
      <stop offset=".43" stop-color="#269448"/>
      <stop offset=".61" stop-color="#177840"/>
      <stop offset=".86" stop-color="#065838"/>
      <stop offset="1" stop-color="#004c35"/>
    </linearGradient>
    <linearGradient id="Gradient-Green-New-2" data-name="Gradient-Green-New" x1="204.75" y1="121.79" x2="204.75" y2="20.32" xlink:href="#Gradient-Green-New"/>
    <linearGradient id="Gradient-Orange" x1="151.57" y1="126.73" x2="151.57" y2="159.54" gradientTransform="translate(-21.29 -29.26) rotate(4.54)" gradientUnits="userSpaceOnUse">
      <stop offset="0" stop-color="#c47f60"/>
      <stop offset="0" stop-color="#c47f5f"/>
      <stop offset=".29" stop-color="#cf8c4e"/>
      <stop offset=".5" stop-color="#d39149"/>
      <stop offset=".61" stop-color="#dda551"/>
      <stop offset=".87" stop-color="#f2d162"/>
      <stop offset="1" stop-color="#fbe369"/>
    </linearGradient>
    <linearGradient id="Gradient-Orange-2" data-name="Gradient-Orange" x1="267.29" y1="93.65" x2="267.29" y2="126.25" gradientTransform="translate(-67.46 -65.86) rotate(18.89)" xlink:href="#Gradient-Orange"/>
    <linearGradient id="Gradient-Orange-3" data-name="Gradient-Orange" x1="211.36" y1="124.22" x2="211.36" y2="156.48" xlink:href="#Gradient-Orange"/>
    <linearGradient id="Gradient-Orange-4" data-name="Gradient-Orange" x1="282.39" y1="113.67" x2="282.39" y2="149.03" gradientTransform="translate(-43.39 -52.2) rotate(11.43)" xlink:href="#Gradient-Orange"/>
  </defs>
  <g id="Layer_1-2" data-name="Layer_1">
    <g>
      <path class="cls-5" d="M46.93,123.27c-4.99.3-12.47.39-20.01-2.23-6.88-2.28-12.55-6.57-15.95-12.09l-.24-.4c-2.5-4.33-4.25-9.25-5.51-15.49-2.01-8.98-3.38-18.39-4.31-29.6C-.14,52.13-.29,41.34.49,31.54v-.13c.12-4.59.44-9.05,3.17-13.18,2.84-4.45,8.15-7.61,15.64-9.23,3.24-.69,6.49-1.13,9.69-1.32,2.39-.14,4.8-.15,7.17-.02h.76c4.52-.02,16.41-.08,21.71,10.24.51.97,1.03,2.16,1.42,3.54.36-.03.74-.05,1.13-.07,2.53-.15,5.09-.2,6.12-.2.99,0,1.99.01,3.01.06,1.59-5.29,6.32-12.21,19.96-13.61l.57-.06c.95-.07,1.9-.14,2.84-.2,5.86-.35,11.14-.28,16.13.2,7.57.65,13.72,5.35,16.49,12.64l.15.43c1.51,4.36,1.46,8.27,1.42,10.86,0,.46-.02.93,0,1.39,1.13,13.52,1.43,27.49.9,41.54-.31,6.44-.88,13.81-2.77,21.03-1.14,4.23-2.6,7.73-4.49,10.76-2.31,3.85-5.48,6.91-9.21,8.88-3.5,1.93-6.98,2.73-9.31,3.27l-.55.12c-3.09.63-6.91,1.11-10.48,1.33-10.64.64-18.15-1.01-23.52-5.19-6.12,7.24-15.01,8.08-19.28,8.48-.89.07-1.56.12-2.23.16Z"/>
      <path class="cls-9" d="M111.03,91.54c-.61,2.29-1.44,4.6-2.74,6.62-.75,1.33-1.87,2.59-3.34,3.31-1.65.98-3.68,1.4-5.6,1.87-5.2,1.07-17.62,2.33-21.6-1.1-1.13-.89-1.75-2.36-2.17-3.75-1.42-4.21-7.07-28.53-8.11-32.9-1.39,7.41-5.87,33.21-10.8,38.98-2.01,2.4-5.86,2.83-8.97,3.14-5.24.42-10.85.43-15.79-1.32-3.09-1.02-6.09-2.86-7.78-5.58-1.92-3.33-3.01-7.14-3.78-10.96-.57-4.48-4.55,5.37-6.78-.35-2.2-5.72-1.6-9.34-.99-13.94.68-4.35,4.56-6.6,3.77-13.35-.65-6.92-.95-13.97-.8-20.95l3.23-12.77,13.83-5.43c1.02-.01,2.03,0,3.04.09,2.58.05,8.16-.4,9.28,1.91.35.64.39,1.29.31,1.93-.62,5.53-.82,11.15-1.15,16.76-.27,8.08-.65,16.31.07,24.34,2.18-6.17,3.71-12.61,5.99-18.81l5.73-8.57s.04-.06.07-.09l.56-.85.28-.41,1.26-.73s.1-.08.16-.11l2.81-1.63c2.45-.18,5.23-.26,6.24-.24.8,0,2.22,0,3.62.13h.03c1.77.17,3.56.53,4.27,1.33,3.46,3.79,11.22,25.17,13.41,29.78-.28-9.26-.87-18.58-1.85-27.87v-.03s1.66-10.37,1.66-10.37v-.06s.49-2.98.49-2.98l2.31-.77.6-.17.03-.03,10.06-3.3c3.28-.17,6.28-.27,7.56-.14.18.01.34-.06.51-.21v.03s1.56-.65,1.56-.65l1.92-4.44c.6.23,4.7,6.72-.84,10.59-.5.14-.31.44-.26.6.37,1.6-.09,3.07.09,5.86,1.1,13.27,1.37,26.6.87,39.9-.29,5.92-.77,11.98-2.27,17.69Z"/>
      <path class="cls-11" d="M32.61,23.05c-3.4.01-6.76.38-10.04,1.08-1.38.3-5.19,1.39-5.98,2.62-.59.9-.59,4.56-.63,5.64-.24,2.94-.36,5.9-.42,8.87l2.33-9.16c.58-2.26,2.21-4.11,4.38-4.97l10.37-4.07Z"/>
      <path class="cls-3" d="M31.13,41.87s-4.95,6.78,1.01,12.28c0,0-1.48,10.97,9.25,11.72,0,0,3.87-8.05-1.54-14.48,0,0-.03-11.54-8.72-9.51"/>
      <path class="cls-4" d="M16.32,9.76s19.48,4.65,15.34,20.8c-4.14,16.15,7.73,28.8,7.73,28.8,0,0-8.64-21.45-4.35-30.05,4.29-8.61,1.18-15.38-6.26-19.43-2.78-1.52-6.87-2.59-8.83-2.49-3.3.16-3.62,2.38-3.62,2.38Z"/>
      <path class="cls-11" d="M71.04,36.79h-.15c-1.41-.16-2.82-.15-3.62-.15-1.01-.02-3.79.07-6.24.24-1.74.14-3.29.32-3.96.58-1.31.57-2.67,2.59-3.83,4.78-1.23,2.27-2.22,4.72-2.73,6.07-.12.3-.23.63-.35.96l6.97-8.18c.5-.58,1.16-.99,1.9-1.18l12.35-3.09-.33-.04Z"/>
      <path class="cls-11" d="M101.89,22.3c-3.5.22-7.31.5-9.82.7-1.34.14-3.14.31-4.59.81-1.27.45-2.25,1.15-2.43,2.3-.26,1,.61,5.13.8,6.19.32,2.55.61,5.1.9,7.68l1.66-10.37v-.06c.29-1.64,1.35-3,2.83-3.72h.03s18.19-3.67,18.19-3.67c-1.28-.13-4.28-.03-7.56.14Z"/>
      <path class="cls-5" d="M135.85,118.03c-3.6-.34-6.77-1.61-9.44-3.78l-.64-.52-.58-.58c-3.73-3.75-5.61-9-5.2-14.44.53-8.99.56-18.24.58-27.18-.12-14.83-.63-30.46-1.52-46.31-.03-.31-.07-.63-.1-.94-.2-1.79-.48-4.25-.21-7.15.51-5.36,3.09-10.11,7.13-13.14,4.18-3.21,8.6-3.65,10.31-3.82l.69-.09.83-.04c6.45-.22,12.53.28,18.42.76,1.93.16,3.86.31,5.79.44l.44.04c4.38.41,7.98,1.74,11,4.06,3.62,2.77,6.07,6.65,7.02,11.07.27-.44.58-.88.91-1.32,4.86-6.48,12.25-6.79,14.71-6.9l.59-.02c2.55-.04,4.97.05,7.41.28,6.2.59,12.07,1.65,17.75,2.67l2.87.52c5.76,1.13,10.55,4.31,13.42,8.79,2.74,4.26,3.59,9.33,2.4,14.28-1.15,4.54-6.47,33.89-7.85,41.88-.64,3.92-1.22,7.98-1.81,12.04-.75,5.24-1.53,10.66-2.48,16.1-1.67,10.27-7.79,14.35-11.89,15.93-1.86.77-5.36,1.92-14.76,1.05-.83-.06-1.67-.13-2.5-.21-5.28-.5-10.23-1.33-14.71-2.47l-.35-.08c-3.71-.84-6.63-2.08-8.92-3.54-5.69,4.46-12.54,3.81-15.28,3.55l-1.48-.15c-3.02-.18-6.14-.24-9.44-.3-3.66-.07-7.45-.13-11.37-.38h-.2c-.6-.04-1.1-.06-1.58-.11Z"/>
      <path class="cls-3" d="M137.83,94.11s-9.67,1.45-8.49-5.09c1.18-6.55,2.81-2.22,2.81-2.22,0,0-.39-4.44,3.96-4.93l3.97,2.29-2.24,9.95Z"/>
      <path class="cls-1" d="M225.41,31.09c-1.39,5.5-7.09,37.33-8.06,42.86-1.54,9.37-2.63,18.77-4.3,28.09-.25,1.61-.76,3.73-2.34,4.22-1.21.55-6.36.14-7.77.03l-2.14-.17c-3.31-.26-2.1,5.53-4.31,3.82-2.17-1.71-1.93-4.47-1.91-4.62-2.14-.17-4.25-.77-6.34-1.3-2.21-.51-5.83-1.08-5.8-3.36-.02-6.78,1.91-13.62,2.23-20.37-2.34-.37-15.74-1.19-18.01-1.28.08,2.47.05,17.56.15,20.19.08,1.3,0,3.02-1.02,3.89-.97,1-4.72.43-6.09.29-6.99-.43-14-.25-21.08-.69-.86-.07-1.85.04-2.46-.44-.6-.63-.8-1.6-.73-2.46.56-9.35.57-18.84.61-28.23-.11-11.41-.4-22.89-.88-34.3l-.03-.03c-.04-.68-.05-1.33-.09-2.01-.09-1.98-.18-3.93-.3-5.88v-.03c-.08-1.73-.15-3.46-.26-5.17-.13-1.89-.5-3.74-.33-5.57.07-.86.39-1.79,1.07-2.26.82-.67,1.99-.67,2.99-.81,2.32-.06,4.65-.03,6.96.06,1.56.09,3.1.18,4.66.31.52.01,1.07.05,1.59.1.15.01.31.02.46,0,3.2.04,8-1.77,10.99-1.84,3.46-.06,7.7.8,6.83,1.28-2.49,1.44-4.51,3.62-4.41,4.73.73,11.8.92,23.7.96,35.6,7.33.03,14.64.3,22.03,1.1.57-3.25,1.1-6.51,1.64-9.76v-.06c.36-2.16.72-4.35,1.08-6.54l.03.03,5.18-12.81s0-.03.04-.06l.54-1.34,1.32-.39s.09-.02.13-.05l6.21-1.79c1.13.12,2.26.27,3.39.42,4.72.65,9.37,1.54,14.08,2.35,2.09.44,4,2.04,3.49,4.22Z"/>
      <path class="cls-3" d="M150.04,90.34s-1.34-6.42,8.46-7.41c0,0-.57,3.63-6.59,6.98l-1.31,1.76-.56-1.33Z"/>
      <path class="cls-4" d="M135.86,88.56s-3.22,4.35-.09,8.55c0,0,10.8,5.8,30.93-5.1,0,0,1.62-3.02-.09-4.5,0,0-29.48,14.79-30.76,1.05Z"/>
      <path class="cls-11" d="M202.54,23.89c-1.93-.18-3.74-.27-5.68-.24-.78.06-2.72.09-3.24.79-.27.32-.37.77-.41,1.26-.06.4-.09.79-.12,1.16-.22,1.65-.48,3.29-.7,4.94-.41,2.89-.86,5.82-1.37,8.7-.36,2.19-.72,4.38-1.07,6.54l6.57-19.87.04-.06c.38-.55.94-.94,1.57-1.17.03-.03.09-.02.13-.05l6.21-1.79c-.64-.08-1.28-.16-1.92-.21Z"/>
      <path class="cls-3" d="M214.5,40.76s25.01,3.38,18.8-20.1c0,0-10.7,8.57-10.21,12.86,0,0-6.81-.95-9.55,6.04.31.99.95,1.2.95,1.2"/>
      <path class="cls-4" d="M189.69,48.26s.45-5.17,1.58-5.79,5.85-7.52,14.81-3.85c8.96,3.67,21.32-2.3,25.3-11.5,0,0-4.45,18.59-26.14,13.44-2.06-.5-8.17-2.32-15.55,7.71Z"/>
      <path class="cls-11" d="M138.06,18.77c-.28,9.71-3,16.46-3,16.46-.09-1.98-.18-3.93-.3-5.88v-.03c-.08-1.73-.15-3.46-.26-5.17-.13-1.89-.5-3.74-.33-5.57.07-.86.39-1.79,1.07-2.26.82-.67,1.99-.67,2.99-.81,2.32-.06,4.65-.03,6.96.06,1.56.09,3.1.18,4.66.31.52.01,1.07.05,1.59.1.15.01.31.02.46,0l-13.84,2.78Z"/>
      <path class="cls-5" d="M109.46,146.11c-1.09-.06-4.71-.65-5.76-5.69-.21-1-.31-2-.4-2.89-.74-7.35.68-9.52,1.15-10.24.57-.87,1.32-1.65,2.21-2.32-2.46-.49-4.34-2.48-4.64-5.02-.13-1.01-.96-7.66-1-9.23v-.23s0-.23,0-.23c.04-.61.14-2.14,1.28-3.55l.11-.13.12-.13c1.39-1.48,3.29-1.82,4.54-2.03l.32-.06.16-.02c1.38-.18,2.9-.3,4.65-.37,1.85-.06,3.64-.11,5.48,0,2.12.12,3.99.42,5.71.91,3.13.9,5.87,2.63,7.73,4.86,1.52,1.76,2.65,4.06,3.15,6.42.64,2.96.38,6.29-.72,9.21,1.85,1.08,3.06,3.13,3.01,5.45v.38c-.21,5.56-.42,7.52-.71,8.65-.36,1.58-1.4,2.94-2.86,3.71-1.35.7-2.65.66-3.16.64h-.97c-5.03.08-9.78.14-14.33,1.07-.33.06-1.46.3-2.37.49l-1.36.28-.13.02c-.39.06-.79.08-1.19.06Z"/>
      <path class="cls-5" d="M148.6,146.08c-6.77-.54-12.95-4.87-15.75-11.04-1.07-2.37-1.68-5.11-1.76-7.94-.2-4.06.58-8.53,2.32-13.17,1.02-2.58,2.53-4.73,4.41-6.31,2.31-2.02,5.31-3.37,8.66-3.91,1.66-.25,3.3-.3,4.93-.17,2.03.16,3.98.6,5.8,1.3,2.52.99,4.62,2.35,6.27,4.05,2.36,2.36,3.51,5.49,4.16,7.64,1.31,4.47,1.44,9.16.37,13.25-.85,3.45-2.26,7.93-5.51,11.31-2.58,2.68-6.42,4.48-10.53,4.94-1.14.12-2.27.14-3.39.05Z"/>
      <path class="cls-5" d="M186.34,149.12c-.45-.04-.84-.12-1.16-.19l-.94-.18c-3.73-.7-7.25-1.36-10.78-1.64-1.21-.1-2.33-.14-3.42-.14-.32,0-1.32,0-2.2.02-.68,0-1.59.01-1.59.01,0,0-.3-.02-.3-.02-2.51-.2-5.45-2.11-5.49-6.84-.01-1.02.09-2.02.17-2.91.72-7.3,2.53-9.15,3.12-9.75.73-.74,1.61-1.36,2.61-1.83-.86-.36-1.62-.92-2.22-1.63-.98-1.17-1.45-2.65-1.33-4.18.06-.84.56-7.61.83-9.19l.04-.22.06-.22c.16-.59.55-2.07,1.95-3.22l.12-.1.13-.09c1.65-1.18,3.57-1.13,4.84-1.1h.32s.64.05.64.05c1.26.1,2.61.27,4.12.51,3.17.53,7.08,1.18,10.73,3.07,2.87,1.49,5.21,3.71,6.58,6.24,1.13,2.01,1.79,4.48,1.82,6.88.04,3.02-.86,6.21-2.5,8.84.37.33.7.7.98,1.12.93,1.38,1.25,3.13.88,4.79l-.07.29c-1.3,5.46-1.89,7.34-2.39,8.39-.66,1.46-1.94,2.58-3.49,3.03-.68.2-1.36.26-2.06.21Z"/>
      <path class="cls-5" d="M205.13,154.61c-2.47-.14-4.82-.51-6.99-1.09-2.14-.57-4.56-1.22-6.86-2.38l-.11-.05c-1.58-.84-2.73-2.08-3.34-3.59-.84-2.01-.57-3.96-.29-5.27.27-1.18.64-2.17.96-3.05.11-.3.22-.59.32-.89l.05-.15.06-.15c.14-.38.39-1.03.88-1.7-.37-1.67.02-3.14.16-3.67.58-2.18,3.95-15.7,4.45-17.86l.04-.18c.66-2.44,2.07-3.64,3.18-4.23.93-.51,2.01-.74,3.11-.68.35.02.71.07,1.06.15,1.14.19,5.87.76,8.44,1.08,1.54.19,2.83.34,3.42.42,8.55.87,10.37,1.81,11.04,2.18,1.97,1.06,3.98,3.42,2.53,8.65l-1.89,7.02c-.47,1.77-1.41,3.08-2.79,3.88-.36.21-.74.37-1.14.49,1.03,2.06,1.56,4.43,1.52,6.81-.03,3.52-1.39,7.19-3.72,10.02-1.85,2.26-4.43,3.25-6.29,3.69-2.67.67-5.2.66-7.1.58-.22,0-.47-.02-.71-.03Z"/>
      <path class="cls-10" d="M131.6,130.69c.02-.69-.47-1.25-1.16-1.22-1.94.07-3.88.13-5.82.11,1.69-1.55,3.19-3.44,4.11-5.51.91-2.12,1.18-4.66.69-6.9-.33-1.57-1.09-3.08-2.12-4.28-1.33-1.6-3.3-2.7-5.3-3.27-1.38-.4-2.81-.6-4.26-.7-1.79-.13-3.6-.08-5.37-.03-1.42.06-2.83.16-4.19.34-.48.09-1.75.26-2.07.6-.15.18-.17.49-.18.75,0,.4.1,1.36.22,2.53h0c.24,2.33.63,5.45.73,6.25.05.55.56.89,1.12.79,2.05-.25,4.03-.75,6.09-.96,1.33-.13,2.75-.19,4.08.2,1.33.34,2.64,1.38,2.3,2.71-.14.7-.65,1.28-1.16,1.75-2.42,2.19-5.79,3.05-8.72,4.47-.78.38-1.55.93-2.04,1.67-.78,1.21-.51,5.58-.37,7.04.08.82.16,1.63.33,2.39.17.8.54,1.9,1.39,1.77.43-.09,3.13-.67,3.59-.76,5.39-1.09,10.92-1.09,16.4-1.17.26.01.56.03.77-.08.2-.11.32-.3.34-.47.36-1.2.54-6.75.58-8.02Z"/>
      <path class="cls-8" d="M162.96,117.96c-.62-2.03-1.48-4.14-2.99-5.64-1.25-1.29-2.84-2.24-4.51-2.9-.83-.32-1.71-.57-2.61-.73h-.02c-.71-.15-1.44-.23-2.16-.27-1.15-.07-2.3-.02-3.42.15-2.27.36-4.52,1.27-6.25,2.79-.84.69-1.55,1.56-2.12,2.52-.01.02-.02.03-.02.03-.34.56-.62,1.15-.86,1.76-.31.82-.6,1.67-.85,2.53-.84,2.84-1.31,5.83-1.17,8.77.07,2.07.49,4.18,1.33,6.06,2.44,5.39,8.23,8.76,14.13,8.15,2.74-.31,5.61-1.48,7.54-3.47,2.32-2.41,3.49-5.85,4.3-9.15.88-3.39.68-7.18-.32-10.59ZM152.69,128.01c-.45.72-1.15,1.39-1.95,1.63-1.88.45-3.78-1.23-4.41-3.08-.67-2.01-.65-4.37.03-6.4.26-.82.77-1.6,1.45-2.05,1.47-.98,3.51-.34,4.55,1.06,1.52,2.04,1.6,6.64.32,8.84Z"/>
      <path class="cls-7" d="M188.67,134.7c-1.9-.32-3.81-.63-5.7-1.03,1.96-1.19,3.79-2.72,5.09-4.57,1.3-1.9,2.06-4.32,2.02-6.59-.01-1.59-.46-3.23-1.23-4.59-.98-1.82-2.69-3.28-4.53-4.22-1.99-1.04-4.17-1.63-6.38-2.07h0c-.95-.2-1.9-.37-2.86-.52-1.4-.22-2.8-.4-4.17-.49-.47,0-1.75-.09-2.12.17-.19.15-.26.45-.33.7-.14.81-.41,4.04-.59,6.38h0c-.09,1.09-.15,1.98-.17,2.36-.05.55.37.98.93.99,2.05.15,4.09.05,6.13.25,1.32.13,2.71.35,3.94.99,1.23.6,2.3,1.86,1.72,3.09-.29.66-.89,1.12-1.49,1.49-2.78,1.65-6.24,1.84-9.37,2.64-.84.22-1.7.61-2.31,1.23-1,1.02-1.6,5.35-1.74,6.8-.08.8-.16,1.62-.15,2.39,0,.82.16,1.95,1.01,1.99.43,0,3.19-.04,3.65-.03,5.46-.03,10.86,1.07,16.21,2.06.25.07.55.14.76.08.23-.07.37-.22.43-.4.58-1.1,1.83-6.48,2.12-7.7.15-.67-.22-1.31-.89-1.42Z"/>
      <path class="cls-6" d="M222.43,117.72c-1.35-.76-7.75-1.47-9.31-1.64-.81-.11-3.42-.42-6.07-.75h0c-.1,0-.2-.03-.3-.03-2.6-.31-5.14-.63-5.9-.78-.33-.08-.67-.09-.92.05-.46.23-.69.78-.82,1.25-.24,1.02-1.03,4.29-1.91,7.81h0c-.2.78-.4,1.57-.59,2.34h0c-.88,3.55-1.72,6.86-1.99,7.88-.13.49-.24,1.06-.06,1.54.19.41.74.6,1.16.53,1.78-.17,3.57-.08,5.34.09,1.61.17,3.23.43,4.7,1.09.7.32,1.37.71,1.87,1.28.57.76.34,1.96-.55,2.37-1.95.95-8.18-.68-10.29-1.25-.83-.17-2.44-1.08-3.04-.47-.19.21-.28.53-.39.81-.4,1.15-.86,2.24-1.13,3.38-.18.82-.28,1.71.04,2.44.2.53.66.91,1.16,1.18,1.87.94,3.93,1.49,5.96,2.03,2.14.57,4.4.88,6.67.97,1.93.07,3.85.03,5.76-.45,1.39-.33,2.82-.98,3.73-2.08,1.6-1.96,2.61-4.55,2.63-7.05.02-1.9-.48-3.86-1.49-5.43-.97-1.39-2.47-2.44-4.03-3.08-2.2-.85-4.66-1.07-7-1.18.18-1.34.37-2.67.64-4.03,1.53.28,11.07,2.01,12.64,2.3.4.11.89.25,1.25.04.31-.18.47-.62.57-.98.22-.81,1.59-5.94,1.82-6.76.29-1.09.91-2.91-.12-3.44Z"/>
      <path class="cls-11" d="M117.74,108.92c-5.42.41-8.05,1.16-9.19,1.61-.45.18-.83.47-1.12.86l-1.27,1.71h0c-.12-1.16-.21-2.13-.22-2.53.01-.25.03-.56.18-.75.32-.34,1.59-.51,2.07-.6,1.36-.18,2.77-.28,4.19-.34,1.76-.06,3.58-.11,5.37.03Z"/>
      <path class="cls-11" d="M150.68,108.42c-9.44,2.19-13.29,9.32-13.52,9.77.24-.86.54-1.7.85-2.53.24-.61.52-1.2.86-1.76,0,0,.01,0,.02-.03.57-.96,1.29-1.82,2.12-2.52,1.73-1.52,3.98-2.44,6.25-2.79,1.12-.17,2.27-.22,3.42-.15Z"/>
      <path class="cls-11" d="M177.95,111.63l-6.45.41c-.52.03-.98.34-1.21.81l-2.43,5.02c.19-2.35.45-5.58.59-6.38.07-.25.14-.55.33-.7.37-.26,1.65-.18,2.12-.17,1.37.09,2.77.27,4.17.49.95.15,1.91.32,2.86.51h0Z"/>
      <path class="cls-11" d="M206.75,115.3l-4.81,1.12c-.34.08-.63.29-.81.59l-3.94,6.63c.88-3.52,1.67-6.8,1.91-7.81.14-.48.36-1.03.82-1.25.26-.15.6-.14.92-.05.76.15,3.3.47,5.9.78Z"/>
      <path class="cls-12" d="M138.73,105.51s-.69,6.69-5.6,5.52c-4.91-1.17-2.31-4.35-2.31-4.35,0,0-4.88.87-4.98-3.83-.1-4.69,5.16-4.08,5.16-4.08,0,0-2.1-1.85-.41-3.96,1.69-2.11,3.85,2.11,3.85,2.11,0,0,5.4-6.03,6.9-.42,1.5,5.61-2.34,3.99-2.34,3.99,0,0,6.02,2.59,3.85,5.2-2.17,2.61-4.11-.18-4.11-.18Z"/>
      <circle class="cls-2" cx="134.23" cy="102.1" r="2.3"/>
    </g>
  </g>
</svg>